<?xml version="1.0" encoding="UTF-8"?>
<svg id="Layer_1" data-name="Layer 1" xmlns="http://www.w3.org/2000/svg" xmlns:xlink="http://www.w3.org/1999/xlink" viewBox="118 419 844 243">
  <defs>
    <style>
      .cls-1 {
        fill: url(#linear-gradient-15);
      }

      .cls-2 {
        fill: url(#linear-gradient-13);
      }

      .cls-3 {
        fill: url(#linear-gradient-28);
      }

      .cls-4 {
        fill: url(#linear-gradient-42);
      }

      .cls-5 {
        fill: url(#linear-gradient-46);
      }

      .cls-6 {
        fill: url(#linear-gradient-2);
      }

      .cls-7 {
        fill: url(#linear-gradient-43);
      }

      .cls-8 {
        fill: url(#linear-gradient-25);
      }

      .cls-9 {
        fill: url(#linear-gradient-10);
      }

      .cls-10 {
        fill: url(#linear-gradient-12);
      }

      .cls-11 {
        fill: url(#linear-gradient-40);
      }

      .cls-12 {
        fill: url(#linear-gradient-27);
      }

      .cls-13 {
        fill: url(#linear-gradient-37);
      }

      .cls-14 {
        fill: url(#linear-gradient-39);
      }

      .cls-15 {
        fill: url(#linear-gradient-52);
      }

      .cls-16 {
        fill: url(#linear-gradient-47);
      }

      .cls-17 {
        fill: url(#linear-gradient-26);
      }

      .cls-18 {
        fill: url(#linear-gradient-4);
      }

      .cls-19 {
        fill: url(#linear-gradient-35);
      }

      .cls-20 {
        fill: url(#linear-gradient-30);
      }

      .cls-21 {
        fill: url(#linear-gradient-44);
      }

      .cls-22 {
        fill: url(#linear-gradient-49);
      }

      .cls-23 {
        fill: url(#linear-gradient-3);
      }

      .cls-24 {
        fill: url(#linear-gradient-34);
      }

      .cls-25 {
        fill: url(#linear-gradient-5);
      }

      .cls-26 {
        fill: url(#linear-gradient-38);
      }

      .cls-27 {
        fill: url(#linear-gradient-22);
      }

      .cls-28 {
        fill: url(#linear-gradient-24);
      }

      .cls-29 {
        fill: url(#linear-gradient-33);
      }

      .cls-30 {
        fill: url(#linear-gradient-51);
      }

      .cls-31 {
        fill: url(#linear-gradient-8);
      }

      .cls-32 {
        fill: url(#linear-gradient-14);
      }

      .cls-33 {
        fill: url(#linear-gradient-29);
      }

      .cls-34 {
        fill: url(#linear-gradient-20);
      }

      .cls-35 {
        fill: url(#linear-gradient-17);
      }

      .cls-36 {
        fill: url(#linear-gradient-50);
      }

      .cls-37 {
        fill: url(#linear-gradient-7);
      }

      .cls-38 {
        fill: url(#linear-gradient-9);
      }

      .cls-39 {
        fill: url(#linear-gradient-11);
      }

      .cls-40 {
        fill: url(#linear-gradient-19);
      }

      .cls-41 {
        fill: url(#linear-gradient-6);
      }

      .cls-42 {
        fill: url(#linear-gradient-36);
      }

      .cls-43 {
        fill: url(#linear-gradient-21);
      }

      .cls-44 {
        fill: url(#linear-gradient-45);
      }

      .cls-45 {
        fill: url(#linear-gradient-48);
      }

      .cls-46 {
        fill: url(#linear-gradient-32);
      }

      .cls-47 {
        fill: url(#linear-gradient-41);
      }

      .cls-48 {
        fill: url(#linear-gradient-16);
      }

      .cls-49 {
        fill: url(#linear-gradient);
      }

      .cls-50 {
        fill: url(#linear-gradient-23);
      }

      .cls-51 {
        fill: url(#linear-gradient-31);
      }

      .cls-52 {
        fill: url(#linear-gradient-18);
      }
    </style>
    <linearGradient id="linear-gradient" x1="117.95" y1="619.53" x2="1375.21" y2="218.05" gradientUnits="userSpaceOnUse">
      <stop offset="0" stop-color="#f74400"/>
      <stop offset="1" stop-color="#000"/>
    </linearGradient>
    <linearGradient id="linear-gradient-2" x1="129.5" y1="655.68" x2="1386.76" y2="254.2" xlink:href="#linear-gradient"/>
    <linearGradient id="linear-gradient-3" x1="134.8" y1="672.3" x2="1392.06" y2="270.82" xlink:href="#linear-gradient"/>
    <linearGradient id="linear-gradient-4" x1="123.54" y1="637.03" x2="1380.8" y2="235.55" xlink:href="#linear-gradient"/>
    <linearGradient id="linear-gradient-5" x1="137.96" y1="682.19" x2="1395.22" y2="280.71" xlink:href="#linear-gradient"/>
    <linearGradient id="linear-gradient-6" x1="147.79" y1="712.95" x2="1405.05" y2="311.48" xlink:href="#linear-gradient"/>
    <linearGradient id="linear-gradient-7" x1="143.22" y1="698.65" x2="1400.48" y2="297.17" xlink:href="#linear-gradient"/>
    <linearGradient id="linear-gradient-8" x1="88.48" y1="527.22" x2="1345.74" y2="125.75" gradientTransform="translate(1.1 -.66)" xlink:href="#linear-gradient"/>
    <linearGradient id="linear-gradient-9" x1="131.71" y1="662.6" x2="1388.97" y2="261.13" xlink:href="#linear-gradient"/>
    <linearGradient id="linear-gradient-10" x1="-63.56" y1="631.91" x2="2885.64" y2="-309.86" xlink:href="#linear-gradient"/>
    <linearGradient id="linear-gradient-11" x1="130.48" y1="658.75" x2="1387.74" y2="257.27" xlink:href="#linear-gradient"/>
    <linearGradient id="linear-gradient-12" x1="132.31" y1="664.48" x2="1389.57" y2="263" xlink:href="#linear-gradient"/>
    <linearGradient id="linear-gradient-13" x1="133.76" y1="669.03" x2="1391.02" y2="267.55" xlink:href="#linear-gradient"/>
    <linearGradient id="linear-gradient-14" x1="136.43" y1="677.4" x2="1393.7" y2="275.92" xlink:href="#linear-gradient"/>
    <linearGradient id="linear-gradient-15" x1="138.14" y1="682.73" x2="1395.4" y2="281.25" xlink:href="#linear-gradient"/>
    <linearGradient id="linear-gradient-16" x1="139.49" y1="686.98" x2="1396.75" y2="285.5" xlink:href="#linear-gradient"/>
    <linearGradient id="linear-gradient-17" x1="141.19" y1="692.3" x2="1398.45" y2="290.82" xlink:href="#linear-gradient"/>
    <linearGradient id="linear-gradient-18" x1="142.72" y1="697.1" x2="1399.98" y2="295.62" xlink:href="#linear-gradient"/>
    <linearGradient id="linear-gradient-19" x1="144.21" y1="701.75" x2="1401.47" y2="300.27" xlink:href="#linear-gradient"/>
    <linearGradient id="linear-gradient-20" x1="145.55" y1="705.95" x2="1402.81" y2="304.47" xlink:href="#linear-gradient"/>
    <linearGradient id="linear-gradient-21" x1="147.42" y1="711.82" x2="1404.69" y2="310.34" xlink:href="#linear-gradient"/>
    <linearGradient id="linear-gradient-22" x1="149.09" y1="717.05" x2="1406.35" y2="315.57" xlink:href="#linear-gradient"/>
    <linearGradient id="linear-gradient-23" x1="150.67" y1="721.98" x2="1407.93" y2="320.5" xlink:href="#linear-gradient"/>
    <linearGradient id="linear-gradient-24" x1="152.11" y1="726.5" x2="1409.37" y2="325.02" xlink:href="#linear-gradient"/>
    <linearGradient id="linear-gradient-25" x1="154.78" y1="734.84" x2="1412.04" y2="333.36" xlink:href="#linear-gradient"/>
    <linearGradient id="linear-gradient-26" x1="157.42" y1="743.11" x2="1414.68" y2="341.63" xlink:href="#linear-gradient"/>
    <linearGradient id="linear-gradient-27" x1="159.1" y1="748.37" x2="1416.36" y2="346.89" xlink:href="#linear-gradient"/>
    <linearGradient id="linear-gradient-28" x1="160.59" y1="753.04" x2="1417.85" y2="351.56" xlink:href="#linear-gradient"/>
    <linearGradient id="linear-gradient-29" x1="162.03" y1="757.56" x2="1419.29" y2="356.08" xlink:href="#linear-gradient"/>
    <linearGradient id="linear-gradient-30" x1="163.38" y1="761.78" x2="1420.64" y2="360.3" xlink:href="#linear-gradient"/>
    <linearGradient id="linear-gradient-31" x1="164.88" y1="766.48" x2="1422.14" y2="365" xlink:href="#linear-gradient"/>
    <linearGradient id="linear-gradient-32" x1="167.7" y1="775.31" x2="1424.96" y2="373.83" xlink:href="#linear-gradient"/>
    <linearGradient id="linear-gradient-33" x1="168.89" y1="779.03" x2="1426.15" y2="377.56" xlink:href="#linear-gradient"/>
    <linearGradient id="linear-gradient-34" x1="170.44" y1="783.89" x2="1427.7" y2="382.41" xlink:href="#linear-gradient"/>
    <linearGradient id="linear-gradient-35" x1="172.22" y1="789.46" x2="1429.48" y2="387.98" xlink:href="#linear-gradient"/>
    <linearGradient id="linear-gradient-36" x1="173.49" y1="793.45" x2="1430.75" y2="391.97" xlink:href="#linear-gradient"/>
    <linearGradient id="linear-gradient-37" x1="174.84" y1="797.67" x2="1432.1" y2="396.2" xlink:href="#linear-gradient"/>
    <linearGradient id="linear-gradient-38" x1="176.54" y1="802.98" x2="1433.8" y2="401.51" xlink:href="#linear-gradient"/>
    <linearGradient id="linear-gradient-39" x1="177.7" y1="806.64" x2="1434.97" y2="405.16" xlink:href="#linear-gradient"/>
    <linearGradient id="linear-gradient-40" x1="179.11" y1="811.04" x2="1436.37" y2="409.56" xlink:href="#linear-gradient"/>
    <linearGradient id="linear-gradient-41" x1="180.47" y1="815.29" x2="1437.73" y2="413.81" xlink:href="#linear-gradient"/>
    <linearGradient id="linear-gradient-42" x1="182.08" y1="820.34" x2="1439.34" y2="418.86" xlink:href="#linear-gradient"/>
    <linearGradient id="linear-gradient-43" x1="183.7" y1="825.42" x2="1440.96" y2="423.94" xlink:href="#linear-gradient"/>
    <linearGradient id="linear-gradient-44" x1="155.18" y1="736.11" x2="1412.44" y2="334.63" xlink:href="#linear-gradient"/>
    <linearGradient id="linear-gradient-45" x1="157.66" y1="743.87" x2="1414.92" y2="342.39" xlink:href="#linear-gradient"/>
    <linearGradient id="linear-gradient-46" x1="160.17" y1="751.72" x2="1417.43" y2="350.24" xlink:href="#linear-gradient"/>
    <linearGradient id="linear-gradient-47" x1="162.25" y1="758.23" x2="1419.51" y2="356.75" xlink:href="#linear-gradient"/>
    <linearGradient id="linear-gradient-48" x1="164.61" y1="765.64" x2="1421.87" y2="364.16" xlink:href="#linear-gradient"/>
    <linearGradient id="linear-gradient-49" x1="166.77" y1="772.4" x2="1424.03" y2="370.93" xlink:href="#linear-gradient"/>
    <linearGradient id="linear-gradient-50" x1="168.91" y1="779.1" x2="1426.17" y2="377.62" xlink:href="#linear-gradient"/>
    <linearGradient id="linear-gradient-51" x1="171.55" y1="787.37" x2="1428.81" y2="385.89" xlink:href="#linear-gradient"/>
    <linearGradient id="linear-gradient-52" x1="174.02" y1="795.1" x2="1431.28" y2="393.63" xlink:href="#linear-gradient"/>
  </defs>
  
  <g>
    <path class="cls-49" d="M367.3,537.1l-.23,11.84c-.03,1.7,2.04,4.13,3.94,4.13l35-.06v8.25s-36.54-.02-36.54-.02c-5.96,0-10.94-4.76-10.95-10.76l-.06-33.22c-.01-5.26,4.14-11,10.02-11.03l37.57-.19v8.57s-33.43-.03-33.43-.03c-2.5,0-5.43.47-5.44,3.71l-.03,10.56,35.2.03.05,8.21h-35.09Z"/>
    <path class="cls-6" d="M503.02,561.28h-22.51c-6.17-.01-10.92-4.61-10.94-10.81l-.07-20.59c-.02-5.72,4.41-11.14,10.45-11.17l23.47-.11c5.45-.03,11.09,4.2,11.14,9.99l.2,21.07c.06,6.45-4.69,11.63-11.73,11.63ZM502.42,553.18c1.59-.52,3.16-2.03,3.6-3.35l-.07-19.2c0-1.95-2.12-3.83-4.09-3.83l-19.72.05c-2.47,0-4.2,2.24-4.2,4.57l.05,17.56c0,2.16,1.8,4.09,3.98,4.1l20.46.09Z"/>
    <path class="cls-23" d="M536.34,553.14l29.69-.12-.05,8.2-30.4.08c-6.04.02-11.82-3.85-11.85-10.48l-.09-21.51c-.02-5.05,4.39-10.51,9.88-10.54l32.47-.13v8.39s-29.39-.25-29.39-.25c-1.88-.02-4.35,2.06-4.35,3.81v18.4c0,1.94,2.07,4.16,4.09,4.15Z"/>
    <polygon class="cls-18" points="455.73 518.71 465.64 518.68 444.38 561.06 432.6 561.21 411.27 518.66 421.2 518.64 438.41 553.86 455.73 518.71"/>
    <path class="cls-25" d="M583.09,530.17l.07,31-8.66.1-.12-30.53c-.03-6.97,4.54-12.15,11.75-12.13l22.29.03-.05,8.2-21.54-.02c-1.19,0-3.73,1.85-3.73,3.35Z"/>
    <path class="cls-41" d="M666.93,549.35c.05-1.13.04-2.26,0-3.39-.23-6.24,4.07-11.06,10.53-11.13l24.29-.24c1.96-1.29.87-7.49-1.9-7.51l-31.36-.26-.1-8.18,31.03.02c6.48-.19,11.56,4.8,11.55,11.29l-.02,31.24-32.77.07c-6.79.02-11.58-5.13-11.25-11.92ZM699.25,553.79c1.59.01,3.43-2.7,3.41-4l-.12-7.98h-22.84c-1.06,0-3.41.67-3.61,1.64l-.81,3.95c-.34,1.67.89,6.18,2.8,6.2l21.18.19Z"/>
    <path class="cls-37" d="M625.78,553.01l30.72.26v8.01s-31.85-.1-31.85-.1c-6.15-.02-10.05-5.85-10.05-11.39v-19.89c0-5.71,4.36-11.11,10.42-11.12l23.02-.03c7,0,10.91,6.31,10.8,12.89-.06,3.37-.38,6.76-2.35,9.27s-5.44,4.02-8.97,4.04l-23.62.09c-1.88,1.36-1.26,7.97,1.9,7.99ZM647.66,537.73c1.72-1.77,2.49-3.87,2.54-6.15.07-2.97-1.74-5.13-4.61-5.14l-18.53-.07c-2.19,0-4.16,2.16-4.13,4.2l.1,7.15h24.62Z"/>
    <g>
      <rect class="cls-31" x="248.7" y="438.87" width="65.59" height="53.43" transform="translate(-1.1 .67)"/>
      <rect class="cls-38" x="248.68" y="588.38" width="65.57" height="52.8"/>
      <path class="cls-9" d="M285.13,513.31l-59.91-.06v-.62s.04-36.13.04-36.13c5.05-2.87,8.99-6.66,7.89-12.04-1.07-5.21-5.19-9.07-10.55-9.11-5.15-.04-9.46,3.91-10.53,9.07-1.11,5.34,2.58,9.39,7.51,12.2l.32,36.64-81.54.03v53.8l81.57-.07v.63s-.2,36.89-.2,36.89c-5.5,3.04-8.79,7.89-7.56,12.75,1.36,5.37,5.47,8.57,10.45,8.42,5.5-.16,10.11-3.7,10.8-9.22.61-4.9-2.71-9.15-7.9-12.01l-.35-37.8,59.88.06.08-53.43Z"/>
    </g>
  </g>
  <g>
    <path class="cls-39" d="M361.82,587.25l2.01-7.69h.94l2.01,7.69,1.73-7.69h1.43l-2.4,9.81h-1.4l-1.81-6.86-1.89,6.86h-1.4l-2.4-9.81h1.43l1.73,7.69Z"/>
    <path class="cls-10" d="M379.73,589.37v-9.81h1.38v9.81h-1.38ZM380.4,580.87v-1.31h5.63v1.31h-5.63ZM380.4,585.15v-1.31h4.89v1.31h-4.89ZM380.4,589.37v-1.31h5.63v1.31h-5.63Z"/>
    <path class="cls-2" d="M396.28,589.37v-9.81h1.37v9.81h-1.37ZM397.09,589.37v-1.28h2.66c.73,0,1.24-.14,1.55-.42.3-.28.46-.65.46-1.1v-.02c0-.49-.13-.87-.39-1.16s-.68-.44-1.28-.44h-3v-1.24h3c.51,0,.89-.12,1.15-.36.26-.24.39-.59.39-1.06,0-.49-.14-.86-.43-1.1-.29-.24-.72-.36-1.3-.36h-2.81v-1.28h3.06c.97,0,1.69.24,2.16.72s.71,1.13.71,1.94c0,.49-.14.94-.43,1.35-.29.41-.74.67-1.36.78.61.09,1.08.36,1.41.8s.5.96.5,1.53v.02c0,.8-.26,1.45-.78,1.94-.52.49-1.22.74-2.1.74h-3.17Z"/>
    <path class="cls-32" d="M425.49,589.37v-9.81h1.38v9.81h-1.38ZM426.42,589.37v-1.31h2.22c.72,0,1.29-.19,1.68-.56.4-.38.6-.91.6-1.59v-2.89c0-.68-.2-1.21-.6-1.59-.4-.38-.96-.56-1.68-.56h-2.22v-1.31h2.18c1.19,0,2.11.31,2.76.92.65.61.98,1.48.98,2.59v2.78c0,.74-.15,1.38-.44,1.9-.29.52-.72.92-1.28,1.2s-1.23.42-2.02.42h-2.17Z"/>
    <path class="cls-1" d="M442.72,589.37v-9.81h1.38v9.81h-1.38ZM443.39,580.87v-1.31h5.63v1.31h-5.63ZM443.39,585.15v-1.31h4.89v1.31h-4.89ZM443.39,589.37v-1.31h5.63v1.31h-5.63Z"/>
    <path class="cls-48" d="M461.46,589.37l-3.2-9.81h1.5l2.35,7.69,2.35-7.69h1.5l-3.2,9.81h-1.31Z"/>
    <path class="cls-35" d="M475.74,589.37v-9.81h1.38v9.81h-1.38ZM476.41,580.87v-1.31h5.63v1.31h-5.63ZM476.41,585.15v-1.31h4.89v1.31h-4.89ZM476.41,589.37v-1.31h5.63v1.31h-5.63Z"/>
    <path class="cls-52" d="M492.29,589.37v-9.81h1.38v9.81h-1.38ZM492.98,589.37v-1.31h5.61v1.31h-5.61Z"/>
    <path class="cls-40" d="M511.48,589.47c-.69,0-1.3-.15-1.82-.45-.52-.3-.92-.72-1.2-1.26-.29-.54-.43-1.18-.43-1.9v-2.78c0-.73.14-1.36.43-1.91s.69-.96,1.2-1.26c.52-.3,1.12-.45,1.82-.45s1.3.15,1.81.45c.52.3.92.72,1.2,1.26.29.54.43,1.18.43,1.91v2.78c0,.72-.14,1.36-.43,1.9-.29.54-.69.97-1.2,1.26-.52.3-1.12.45-1.81.45ZM511.48,588.12c.62,0,1.11-.2,1.48-.61s.56-.94.56-1.61v-2.87c0-.67-.19-1.21-.56-1.61s-.86-.6-1.48-.6-1.1.2-1.48.6-.56.94-.56,1.61v2.87c0,.67.19,1.2.56,1.61s.87.61,1.48.61Z"/>
    <path class="cls-34" d="M525.31,589.37v-9.81h1.38v9.81h-1.38ZM526.02,585.57v-1.31h3.14c.45,0,.81-.16,1.08-.47.27-.31.41-.72.41-1.22s-.14-.92-.41-1.23c-.27-.31-.63-.47-1.08-.47h-3.14v-1.31h3.09c.59,0,1.11.12,1.55.38s.78.6,1.03,1.05c.25.45.37.98.37,1.59s-.12,1.13-.37,1.58c-.25.45-.59.8-1.03,1.05s-.96.37-1.55.37h-3.09Z"/>
    <path class="cls-43" d="M546.24,586.04l2.88-6.48h1.29v9.81h-1.34v-7.35l.07.43-2.42,5.55h-.96l-2.42-5.42.07-.57v7.35h-1.34v-9.81h1.29l2.88,6.48Z"/>
    <path class="cls-27" d="M561.13,589.37v-9.81h1.38v9.81h-1.38ZM561.8,580.87v-1.31h5.63v1.31h-5.63ZM561.8,585.15v-1.31h4.89v1.31h-4.89ZM561.8,589.37v-1.31h5.63v1.31h-5.63Z"/>
    <path class="cls-50" d="M577.68,589.36v-9.8h1.25l4.8,7.58-.16.17v-7.76h1.36v9.8h-1.26l-4.78-7.47.16-.18v7.65h-1.36Z"/>
    <path class="cls-28" d="M594.84,580.87v-1.31h6.92v1.31h-6.92ZM597.61,589.37v-9.01h1.38v9.01h-1.38Z"/>
    <path class="cls-8" d="M623,583.95h4.54v1.31h-4.54v-1.31Z"/>
    <path class="cls-17" d="M654.23,586.04l2.88-6.48h1.29v9.81h-1.34v-7.35l.07.43-2.42,5.55h-.96l-2.42-5.42.07-.57v7.35h-1.34v-9.81h1.29l2.88,6.48Z"/>
    <path class="cls-12" d="M672.36,589.47c-.69,0-1.3-.15-1.82-.45-.52-.3-.92-.72-1.21-1.26-.29-.54-.43-1.18-.43-1.9v-2.78c0-.73.14-1.36.43-1.91.29-.54.69-.96,1.21-1.26.52-.3,1.12-.45,1.82-.45s1.3.15,1.82.45c.52.3.92.72,1.2,1.26s.43,1.18.43,1.91v2.78c0,.72-.14,1.36-.43,1.9-.29.54-.69.97-1.2,1.26-.52.3-1.12.45-1.82.45ZM672.36,588.12c.62,0,1.11-.2,1.48-.61s.56-.94.56-1.61v-2.87c0-.67-.19-1.21-.56-1.61s-.87-.6-1.48-.6-1.1.2-1.48.6c-.37.4-.56.94-.56,1.61v2.87c0,.67.19,1.2.56,1.61.37.41.87.61,1.48.61Z"/>
    <path class="cls-3" d="M686.2,589.37v-9.81h1.37v9.81h-1.37ZM687,589.37v-1.28h2.66c.73,0,1.24-.14,1.55-.42.3-.28.46-.65.46-1.1v-.02c0-.49-.13-.87-.39-1.16s-.68-.44-1.28-.44h-3v-1.24h3c.51,0,.89-.12,1.15-.36.26-.24.39-.59.39-1.06,0-.49-.14-.86-.43-1.1-.29-.24-.72-.36-1.29-.36h-2.81v-1.28h3.06c.97,0,1.69.24,2.16.72s.71,1.13.71,1.94c0,.49-.14.94-.43,1.35-.29.41-.74.67-1.36.78.61.09,1.08.36,1.41.8s.5.96.5,1.53v.02c0,.8-.26,1.45-.78,1.94s-1.22.74-2.11.74h-3.17Z"/>
    <path class="cls-33" d="M704.78,579.56v9.81h-1.38v-9.81h1.38Z"/>
    <path class="cls-20" d="M715.5,589.37v-9.81h1.38v9.81h-1.38ZM716.19,589.37v-1.31h5.61v1.31h-5.61Z"/>
    <path class="cls-51" d="M731.72,589.37v-9.81h1.38v9.81h-1.38ZM732.39,580.87v-1.31h5.63v1.31h-5.63ZM732.39,585.15v-1.31h4.89v1.31h-4.89ZM732.39,589.37v-1.31h5.63v1.31h-5.63Z"/>
    <path class="cls-46" d="M759.33,589.37l3.62-9.81h1.17l3.62,9.81h-1.48l-2.72-7.92-2.72,7.92h-1.48ZM760.99,587.22v-1.31h5.16v1.31h-5.16Z"/>
    <path class="cls-29" d="M777.51,589.37v-9.81h1.38v9.81h-1.38ZM778.22,585.57v-1.31h3.14c.45,0,.81-.16,1.08-.47.27-.31.41-.72.41-1.22s-.14-.92-.41-1.23c-.27-.31-.63-.47-1.08-.47h-3.14v-1.31h3.09c.59,0,1.11.12,1.55.38.44.25.78.6,1.03,1.05.24.45.37.98.37,1.59s-.12,1.13-.37,1.58c-.25.45-.59.8-1.03,1.05-.44.25-.96.37-1.55.37h-3.09Z"/>
    <path class="cls-24" d="M794.27,589.37v-9.81h1.38v9.81h-1.38ZM794.98,585.57v-1.31h3.14c.45,0,.81-.16,1.08-.47.27-.31.41-.72.41-1.22s-.14-.92-.41-1.23c-.27-.31-.63-.47-1.08-.47h-3.14v-1.31h3.09c.59,0,1.11.12,1.55.38s.78.6,1.03,1.05c.25.45.37.98.37,1.59s-.12,1.13-.37,1.58c-.25.45-.59.8-1.03,1.05s-.96.37-1.55.37h-3.09Z"/>
    <path class="cls-19" d="M811.03,589.37v-9.81h1.38v9.81h-1.38ZM811.72,589.37v-1.31h5.61v1.31h-5.61Z"/>
    <path class="cls-42" d="M828.62,579.56v9.81h-1.38v-9.81h1.38Z"/>
    <path class="cls-13" d="M842.55,589.47c-.68,0-1.28-.15-1.79-.46-.51-.3-.91-.73-1.19-1.28-.28-.55-.42-1.19-.42-1.92v-2.69c0-.74.14-1.38.42-1.93.28-.55.68-.98,1.19-1.28.51-.3,1.11-.46,1.79-.46.57,0,1.08.12,1.55.36.47.24.86.58,1.18,1.02.32.44.53.95.64,1.53h-1.41c-.09-.32-.23-.59-.43-.83-.2-.24-.43-.42-.71-.55-.27-.13-.55-.2-.84-.2-.6,0-1.09.21-1.46.64-.37.42-.55.99-.55,1.68v2.69c0,.7.18,1.26.55,1.68.37.42.85.63,1.46.63.43,0,.83-.14,1.21-.41.38-.27.63-.66.76-1.17h1.41c-.11.58-.33,1.09-.65,1.53s-.71.78-1.18,1.02c-.47.24-.99.36-1.55.36Z"/>
    <path class="cls-26" d="M854.83,589.37l3.62-9.81h1.17l3.62,9.81h-1.49l-2.72-7.92-2.72,7.92h-1.48ZM856.5,587.22v-1.31h5.16v1.31h-5.16Z"/>
    <path class="cls-14" d="M871.4,580.87v-1.31h6.92v1.31h-6.92ZM874.17,589.37v-9.01h1.38v9.01h-1.38Z"/>
    <path class="cls-11" d="M889.34,579.56v9.81h-1.38v-9.81h1.38Z"/>
    <path class="cls-47" d="M903.3,589.47c-.69,0-1.3-.15-1.82-.45-.52-.3-.92-.72-1.21-1.26-.29-.54-.43-1.18-.43-1.9v-2.78c0-.73.14-1.36.43-1.91.29-.54.69-.96,1.21-1.26.52-.3,1.12-.45,1.82-.45s1.3.15,1.82.45c.52.3.92.72,1.2,1.26s.43,1.18.43,1.91v2.78c0,.72-.14,1.36-.43,1.9-.29.54-.69.97-1.2,1.26-.52.3-1.12.45-1.82.45ZM903.3,588.12c.62,0,1.11-.2,1.48-.61s.56-.94.56-1.61v-2.87c0-.67-.19-1.21-.56-1.61s-.87-.6-1.48-.6-1.1.2-1.48.6c-.37.4-.56.94-.56,1.61v2.87c0,.67.19,1.2.56,1.61.37.41.87.61,1.48.61Z"/>
    <path class="cls-4" d="M917.13,589.36v-9.8h1.25l4.8,7.58-.16.17v-7.76h1.36v9.8h-1.26l-4.78-7.47.16-.18v7.65h-1.36Z"/>
    <path class="cls-7" d="M938.05,589.47c-.48,0-.93-.04-1.35-.14-.42-.09-.81-.22-1.18-.4-.37-.18-.71-.41-1.03-.67l.86-1.05c.37.32.79.57,1.24.73s.94.24,1.46.24c.71,0,1.26-.13,1.65-.4.39-.26.59-.64.59-1.11h0c0-.38-.1-.67-.3-.86-.2-.2-.46-.35-.78-.44-.32-.1-.67-.18-1.06-.24-.37-.06-.74-.14-1.12-.22-.38-.09-.72-.22-1.04-.4-.31-.18-.57-.44-.76-.79-.19-.34-.29-.8-.29-1.37h0c0-.92.3-1.63.91-2.13.61-.5,1.46-.75,2.57-.75.53,0,1.04.08,1.55.25.5.17.99.43,1.47.77l-.78,1.09c-.37-.28-.75-.49-1.12-.62s-.74-.2-1.12-.2c-.67,0-1.19.13-1.56.4s-.56.65-.56,1.14h0c0,.38.11.66.32.85.22.19.5.34.85.43.35.09.72.18,1.12.26.36.07.72.16,1.08.26.36.1.69.25.98.44.29.19.53.45.71.79s.27.77.27,1.3h0c0,.92-.31,1.62-.95,2.11-.63.49-1.52.74-2.66.74Z"/>
  </g>
  <g>
    <path class="cls-21" d="M728.07,555.85c.34,2.22,1.83,3.34,3.94,3.34s3.45-1.07,3.45-2.95-.96-2.75-4.03-3.69c-3.87-1.16-5.32-2.46-5.32-5.06,0-2.97,2.27-4.82,5.65-4.82,3.98,0,5.68,2.29,5.87,4.91h-2.5c-.27-1.75-1.25-2.9-3.43-2.9-2.03,0-3.03.98-3.03,2.57s.94,2.25,3.78,3.1c4.49,1.35,5.6,3.09,5.6,5.6,0,3-2.06,5.26-6.16,5.26-3.79,0-6.08-2.01-6.33-5.37h2.51Z"/>
    <path class="cls-44" d="M766.33,551.84c0,5.2-2.44,9.43-7.82,9.43s-7.61-4.05-7.61-9.42c0-4.69,2.46-9.2,7.83-9.2,5.08,0,7.6,4.04,7.6,9.2ZM753.53,551.82c0,4.13,1.67,7.36,5.12,7.36s5.11-3.15,5.11-7.32-1.53-7.12-5.12-7.12-5.11,3.17-5.11,7.08Z"/>
    <path class="cls-5" d="M780.38,542.89h2.52v15.99h8.6l-.33,2.12h-10.78v-18.11Z"/>
    <path class="cls-16" d="M806.29,542.89v11.53c0,2.71.96,4.74,4.09,4.74s4.01-1.93,4.01-4.75v-11.51h2.57v11.61c0,3.81-1.59,6.77-6.64,6.77-4.74,0-6.57-2.51-6.57-6.65v-11.72h2.55Z"/>
    <path class="cls-45" d="M835.14,545.05h-5.23v-2.15h13.01v2.15h-5.24v15.96h-2.54v-15.96Z"/>
    <path class="cls-22" d="M858.4,542.89v18.11h-2.52v-18.11h2.52Z"/>
    <path class="cls-36" d="M887.9,551.84c0,5.2-2.44,9.43-7.82,9.43s-7.61-4.05-7.61-9.42c0-4.69,2.46-9.2,7.83-9.2,5.08,0,7.6,4.04,7.6,9.2ZM875.09,551.82c0,4.13,1.67,7.36,5.12,7.36s5.11-3.15,5.11-7.32-1.53-7.12-5.12-7.12-5.11,3.17-5.11,7.08Z"/>
    <path class="cls-30" d="M901.94,561.01v-18.11h3.31c6.88,12.51,7.83,14.26,8.15,15.06h.04c-.17-2.36-.2-5.29-.2-8.23v-6.83h2.36v18.11h-3.09c-7.36-13.59-7.94-14.78-8.31-15.53h-.03c.13,2.33.11,5.38.11,8.63v6.89h-2.35Z"/>
    <path class="cls-15" d="M931.67,555.85c.34,2.22,1.83,3.34,3.94,3.34s3.45-1.07,3.45-2.95-.96-2.75-4.03-3.69c-3.87-1.16-5.32-2.46-5.32-5.06,0-2.97,2.27-4.82,5.65-4.82,3.98,0,5.68,2.29,5.87,4.91h-2.5c-.27-1.75-1.25-2.9-3.43-2.9-2.03,0-3.03.98-3.03,2.57s.94,2.25,3.78,3.1c4.49,1.35,5.6,3.09,5.6,5.6,0,3-2.06,5.26-6.16,5.26-3.79,0-6.08-2.01-6.33-5.37h2.51Z"/>
  </g>
</svg>